<?xml version="1.0" standalone="no"?>
<!DOCTYPE svg PUBLIC "-//W3C//DTD SVG 20010904//EN"
 "http://www.w3.org/TR/2001/REC-SVG-20010904/DTD/svg10.dtd">
<svg version="1"
	xmlns="http://www.w3.org/2000/svg" width="189px" height="55px" viewBox="0 0 410 200" preserveAspectRatio="xMidYMid meet">

	<g transform="matrix(0.1,0,0,-0.1,0,200)" fill="white" stroke="none">
		<path d="M 2720 1696 l 0 -233 l -55 -7 c -149 -17 -361 -138 -576 -327 l -80 -71 l 26 -28 l 27 -29 l 106 91 c 283 243 533 341 696 273 c 53 -22 113 -72 146 -120 c 55 -80 185 -359 174 -376 c -3 -5 -15 -9 -28 -9 c -39 0 -125 -50 -142 -82 c -8 -16 -16 -55 -17 -86 l -2 -57 l 98 -3 l 97 -3 l 0 59 c 0 43 5 63 16 73 c 14 11 19 10 35 -10 c 22 -27 25 -93 6 -109 c -7 -6 -53 -25 -102 -42 c -109 -39 -131 -53 -144 -92 c -14 -40 -13 -124 2 -168 c 15 -45 64 -70 135 -70 c 53 0 112 21 112 41 c 0 6 4 8 10 4 c 5 -3 7 -12 3 -20 c -4 -13 12 -15 101 -15 l 106 0 l 0 61 l 0 62 l 33 -25 c 24 -19 33 -35 35 -62 l 3 -36 l 110 0 l 109 0 l 1 113 l 1 112 l 19 -75 c 11 -41 24 -92 30 -112 l 10 -38 l 99 0 c 55 0 100 3 100 7 c 0 4 -22 78 -50 164 c -27 86 -50 165 -50 176 c 0 10 18 65 40 123 c 22 58 40 106 40 107 c 0 2 -40 3 -89 3 l -88 0 l -29 -75 c -16 -41 -31 -75 -34 -75 c -3 0 -5 62 -5 137 l 0 138 l -105 0 l -105 0 l -5 -270 l -5 -269 l -32 39 c -32 38 -33 43 -33 130 c 0 49 -5 107 -9 129 c -12 50 -55 94 -106 107 c -80 22 -79 21 -135 151 c -83 194 -129 276 -191 340 c -57 58 -133 102 -197 114 l -33 6 l 3 105 l 3 105 l 202 76 c 111 42 200 78 199 80 c -3 2 -369 32 -398 32 c -5 0 -8 16 -8 35 c 0 34 -1 35 -40 35 l -40 0 l 0 -234 z m 210 106 l 55 -7 l -86 -32 c -47 -18 -88 -33 -92 -33 c -4 0 -7 18 -7 40 c 0 40 0 40 38 39 c 20 -1 62 -4 92 -7 z m 325 -1409 c -4 -16 -13 -23 -29 -23 c -28 0 -36 16 -36 77 c 0 37 5 50 33 76 l 32 32 l 3 -70 c 2 -38 0 -80 -3 -92 z"/>
		<path d="M 65 1190 c -3 -6 1 -13 9 -16 c 12 -5 16 -20 16 -60 c 0 -47 2 -54 20 -54 c 18 0 20 7 20 55 c 0 30 5 55 10 55 c 6 0 10 7 10 15 c 0 17 -75 22 -85 5 z"/>
		<path d="M 550 1130 c 0 -63 2 -70 20 -70 c 18 0 20 7 20 70 c 0 63 -2 70 -20 70 c -18 0 -20 -7 -20 -70 z"/>
		<path d="M 810 1190 c 0 -5 7 -10 15 -10 c 8 0 15 5 15 10 c 0 6 -7 10 -15 10 c -8 0 -15 -4 -15 -10 z"/>
		<path d="M 1136 1173 c -19 -100 -19 -113 2 -113 c 11 0 23 6 26 13 c 5 10 7 10 12 0 c 9 -21 46 -16 40 5 c -2 9 -8 41 -11 70 c -6 49 -9 52 -35 52 c -23 0 -29 -5 -34 -27 z m 38 -48 c 3 -8 1 -15 -4 -15 c -6 0 -10 7 -10 15 c 0 8 2 15 4 15 c 2 0 6 -7 10 -15 z"/>
		<path d="M 1865 1190 c 3 -5 13 -10 21 -10 c 8 0 14 5 14 10 c 0 6 -9 10 -21 10 c -11 0 -17 -4 -14 -10 z"/>
		<path d="M 166 1165 c -19 -19 -21 -76 -4 -93 c 13 -13 67 -17 69 -4 c 6 44 6 80 1 89 c -13 20 -49 24 -66 8 z m 38 -70 c -4 -8 -8 -15 -10 -15 c -2 0 -4 7 -4 15 c 0 8 4 15 10 15 c 5 0 7 -7 4 -15 z"/>
		<path d="M 268 1169 c -18 -10 -24 -61 -12 -93 c 8 -21 58 -21 74 -1 c 10 13 11 18 1 28 c -10 9 -15 8 -27 -7 c -13 -18 -14 -17 -13 20 c 0 21 3 33 6 27 c 5 -15 43 -18 43 -4 c 0 14 -29 41 -43 41 c -7 0 -20 -5 -29 -11 z"/>
		<path d="M 378 1173 c -27 -4 -28 -7 -28 -59 c 0 -47 3 -54 19 -54 c 16 0 21 8 24 48 l 3 47 l 2 -47 c 2 -41 5 -48 22 -48 c 17 0 20 7 20 48 c 0 42 -14 75 -29 71 c -4 -1 -18 -4 -33 -6 z"/>
		<path d="M 466 1167 c -13 -10 -17 -24 -14 -57 c 3 -41 6 -45 31 -48 c 16 -2 35 2 43 9 c 15 12 19 66 6 85 c -12 19 -47 25 -66 11 z m 31 -69 c -2 -13 -4 -5 -4 17 c -1 22 1 32 4 23 c 2 -10 2 -28 0 -40 z"/>
		<path d="M 622 1164 c -15 -10 -22 -25 -22 -48 c 0 -40 19 -59 57 -54 c 25 3 28 7 31 48 c 3 33 -1 47 -14 57 c -22 16 -25 16 -52 -3 z m 25 -66 c -2 -13 -4 -5 -4 17 c -1 22 1 32 4 23 c 2 -10 2 -28 0 -40 z"/>
		<path d="M 883 1169 c -26 -9 -31 -39 -8 -39 c 8 0 15 5 15 10 c 0 6 5 10 10 10 c 19 0 10 -17 -15 -28 c -17 -8 -25 -20 -25 -37 c 0 -23 4 -25 40 -25 l 40 0 l 0 50 c 0 55 -18 74 -57 59 z m 23 -86 c -10 -10 -19 5 -10 18 c 6 11 8 11 12 0 c 2 -7 1 -15 -2 -18 z"/>
		<path d="M 1338 1172 c -25 -5 -23 -49 2 -62 c 11 -6 20 -16 19 -23 c 0 -9 -2 -9 -6 1 c -7 19 -35 15 -31 -5 c 2 -13 13 -18 38 -18 c 29 0 36 4 38 22 c 2 16 -4 26 -22 35 c -33 14 -33 27 -1 20 c 20 -3 24 -1 19 11 c -6 17 -30 25 -56 19 z"/>
		<path d="M 1528 1172 c -27 -5 -22 -43 10 -69 c 15 -12 21 -22 15 -23 c -7 0 -13 5 -13 10 c 0 6 -7 10 -16 10 c -9 0 -14 -7 -12 -17 c 2 -13 13 -18 38 -18 c 46 0 53 29 13 61 l -28 24 l 29 -6 c 21 -5 27 -3 24 6 c -5 16 -37 28 -60 22 z"/>
		<path d="M 1618 1169 c -26 -15 -22 -48 7 -61 c 25 -11 34 -28 15 -28 c -5 0 -10 5 -10 10 c 0 6 -7 10 -16 10 c -9 0 -14 -7 -12 -17 c 2 -13 13 -18 38 -18 c 46 0 53 29 13 61 l -28 24 l 28 -6 c 32 -7 37 10 8 26 c -23 12 -22 12 -43 -1 z"/>
		<path d="M 1720 1172 c -22 -7 -30 -23 -30 -57 c 0 -38 16 -55 52 -55 c 21 0 29 6 34 24 c 15 59 -13 103 -56 88 z m 17 -74 c -2 -13 -4 -5 -4 17 c -1 22 1 32 4 23 c 2 -10 2 -28 0 -40 z"/>
		<path d="M 1938 1169 c -10 -5 -18 -17 -18 -24 c 0 -18 26 -20 33 -2 c 4 9 6 9 6 0 c 1 -7 -8 -17 -19 -23 c -12 -6 -20 -21 -20 -35 c 0 -22 4 -25 40 -25 l 40 0 l 0 50 c 0 38 -4 52 -19 60 c -23 12 -22 12 -43 -1 z m 19 -81 c -3 -8 -6 -5 -6 6 c -1 11 2 17 5 13 c 3 -3 4 -12 1 -19 z"/>
		<path d="M 3600 1160 c -41 -41 -13 -110 44 -110 c 40 0 66 26 66 67 c 0 57 -69 84 -110 43 z m 82 -7 c 36 -33 13 -93 -37 -93 c -24 0 -55 33 -55 57 c 0 19 37 53 57 53 c 9 0 25 -7 35 -17 z"/>
		<path d="M 3620 1113 c 0 -30 3 -35 11 -23 c 8 11 12 12 16 3 c 9 -24 20 -13 21 22 c 1 31 -1 35 -23 35 c -22 0 -25 -4 -25 -37 z m 35 17 c 3 -5 -1 -10 -10 -10 c -9 0 -13 5 -10 10 c 3 6 8 10 10 10 c 2 0 7 -4 10 -10 z"/>
		<path d="M 707 1163 c -9 -9 -9 -68 0 -77 c 4 -4 8 -15 8 -24 c 0 -13 9 -17 35 -17 l 35 0 l 3 63 l 3 62 l -39 0 c -21 0 -42 -3 -45 -7 z m 40 -60 c -3 -10 -5 -2 -5 17 c 0 19 2 27 5 18 c 2 -10 2 -26 0 -35 z"/>
		<path d="M 810 1115 c 0 -47 3 -56 17 -53 c 24 5 25 101 0 106 c -14 3 -17 -5 -17 -53 z"/>
		<path d="M 997 1163 c -12 -11 -8 -78 5 -91 c 16 -16 55 -15 65 1 c 9 14 13 55 6 80 c -3 12 -14 17 -37 17 c -18 0 -36 -3 -39 -7 z m 44 -70 c -8 -15 -10 -15 -11 -2 c 0 17 10 32 18 25 c 2 -3 -1 -13 -7 -23 z"/>
		<path d="M 1223 1153 c -4 -11 3 -23 20 -37 c 15 -12 27 -26 27 -30 c 0 -5 -7 -3 -15 4 c -18 15 -30 7 -22 -15 c 8 -20 63 -20 71 0 c 8 21 -3 43 -25 50 c -25 8 -25 25 1 18 c 14 -4 20 0 20 11 c 0 23 -68 22 -77 -1 z"/>
		<path d="M 1414 1156 c -3 -8 -4 -31 -2 -52 c 3 -34 6 -39 31 -42 c 16 -2 34 2 42 8 c 13 11 14 67 1 89 c -10 16 -66 14 -72 -3 z m 54 -56 c -7 -11 -15 -15 -17 -9 c -2 6 3 15 10 20 c 20 12 21 11 7 -11 z"/>
		<path d="M 1790 1115 c 0 -48 2 -55 20 -55 c 16 0 20 7 20 35 c 0 19 5 35 10 35 c 6 0 10 9 10 20 c 0 16 -7 20 -30 20 c -30 0 -30 -1 -30 -55 z"/>
		<path d="M 1860 1115 c 0 -48 2 -55 20 -55 c 18 0 20 7 20 55 c 0 48 -2 55 -20 55 c -18 0 -20 -7 -20 -55 z"/>
		<path d="M 67 984 c -4 -4 -7 -164 -7 -356 l 0 -348 l 113 0 l 112 0 l -3 145 c -2 80 0 146 5 146 c 4 1 33 3 63 5 c 30 1 58 3 63 3 c 4 1 7 30 7 66 l 0 65 l -70 0 l -70 0 l 0 65 l 0 65 l 58 1 c 31 1 66 2 77 3 c 18 1 20 8 20 71 l 0 70 l -181 3 c -99 1 -183 -1 -187 -4 z"/>
		<path d="M 497 983 c -4 -3 -7 -163 -7 -355 l 0 -348 l 180 0 l 181 0 l -3 68 l -3 67 l -67 3 l -68 3 l 0 284 l 0 285 l -103 0 c -57 0 -107 -3 -110 -7 z"/>
		<path d="M 1920 635 l 0 -355 l 110 0 l 110 0 l 0 139 l 0 138 l 75 6 c 86 6 144 31 162 67 c 8 15 13 68 13 138 c 0 127 -11 162 -60 187 c -41 21 -152 34 -292 35 l -118 0 l 0 -355 z m 282 211 c 10 -14 10 -128 0 -143 c -4 -6 -20 -15 -35 -18 l -27 -7 l 0 96 l 0 96 l 28 -6 c 15 -4 30 -12 34 -18 z"/>
		<path fill="red" d="M 1053 860 c -88 -18 -137 -61 -154 -135 c -7 -31 -10 -107 -8 -191 c 4 -122 7 -143 26 -174 c 35 -56 91 -82 192 -87 c 100 -6 157 6 201 43 c 44 38 60 75 60 144 l 0 60 l -95 0 l -95 0 l 0 -49 c 0 -74 -14 -103 -48 -99 l -27 3 l -3 93 l -3 92 l 136 0 l 135 0 l 0 78 c -1 139 -51 201 -180 221 c -73 12 -78 12 -137 1 z m 111 -137 c 11 -56 4 -73 -34 -73 c -30 0 -30 1 -30 53 c 0 60 5 69 35 65 c 15 -2 22 -14 29 -45 z"/>
		<path fill="red" d="M 2613 860 c -76 -16 -123 -47 -144 -96 c -18 -40 -20 -63 -17 -212 c 3 -156 4 -169 26 -200 c 37 -51 93 -74 193 -80 c 172 -9 258 56 259 196 l 0 53 l -97 -3 l -98 -3 l -5 -70 c -5 -70 -5 -70 -35 -70 c -28 0 -30 3 -37 50 c -4 27 -6 68 -4 90 l 2 40 l 138 3 l 138 3 l -4 83 c -6 111 -27 152 -99 188 c -60 31 -149 42 -216 28 z m 91 -96 c 12 -5 16 -20 16 -61 l 0 -54 l -32 3 c -32 3 -33 4 -31 48 c 4 70 10 78 47 64 z"/>
		<path d="M 1410 857 c 0 -2 20 -65 44 -141 l 44 -138 l -39 -131 c -22 -73 -42 -140 -45 -149 c -5 -16 3 -18 84 -18 l 89 0 l 18 85 c 10 47 21 85 25 85 c 4 0 15 -38 25 -85 l 18 -85 l 103 0 c 57 0 104 2 104 3 c 0 2 -23 70 -50 151 l -50 148 l 40 130 c 22 72 40 134 40 140 c 0 5 -41 7 -92 6 l -93 -3 l -19 -87 c -11 -49 -23 -88 -26 -88 c -3 0 -15 39 -26 88 l -19 87 l -87 3 c -49 1 -88 1 -88 -1 z"/>
		<path fill="red" d="M 0 81 c 0 -15 10 -19 58 -24 c 31 -4 954 -7 2050 -7 l 1992 -1 l 0 26 l 0 25 l -2050 0 c -1996 0 -2050 0 -2050 -19 z"/>
	</g>
</svg>
